<mxfile host="app.diagrams.net" modified="2024-04-18T07:59:33.079Z" agent="Mozilla/5.0 (Windows NT 10.0; Win64; x64) AppleWebKit/537.36 (KHTML, like Gecko) Chrome/123.0.0.0 Safari/537.36" etag="kR8LQmvqrIKdsYhtYIFG" version="24.2.5" type="device">
  <diagram name="Page-1" id="ig5VgEm3FSn_Dp-ISeQd">
    <mxGraphModel dx="1115" dy="566" grid="1" gridSize="10" guides="1" tooltips="1" connect="1" arrows="1" fold="1" page="1" pageScale="1" pageWidth="850" pageHeight="1100" math="0" shadow="0">
      <root>
        <mxCell id="0" />
        <mxCell id="1" parent="0" />
        <mxCell id="RqrhnJlKZs5W2SoNAt37-3" value="" style="whiteSpace=wrap;html=1;aspect=fixed;" vertex="1" parent="1">
          <mxGeometry x="40" y="160" width="120" height="120" as="geometry" />
        </mxCell>
        <mxCell id="RqrhnJlKZs5W2SoNAt37-5" value="Presentation Layer" style="text;html=1;align=center;verticalAlign=middle;whiteSpace=wrap;rounded=0;" vertex="1" parent="1">
          <mxGeometry x="50" y="205" width="100" height="30" as="geometry" />
        </mxCell>
        <mxCell id="RqrhnJlKZs5W2SoNAt37-9" value="" style="whiteSpace=wrap;html=1;aspect=fixed;" vertex="1" parent="1">
          <mxGeometry x="440" y="160" width="120" height="120" as="geometry" />
        </mxCell>
        <mxCell id="RqrhnJlKZs5W2SoNAt37-10" value="" style="whiteSpace=wrap;html=1;aspect=fixed;" vertex="1" parent="1">
          <mxGeometry x="240" y="160" width="120" height="120" as="geometry" />
        </mxCell>
        <mxCell id="RqrhnJlKZs5W2SoNAt37-11" value="Workflow &amp;amp; Business Logic Layert" style="text;html=1;align=center;verticalAlign=middle;whiteSpace=wrap;rounded=0;" vertex="1" parent="1">
          <mxGeometry x="250" y="197.5" width="100" height="45" as="geometry" />
        </mxCell>
        <mxCell id="RqrhnJlKZs5W2SoNAt37-12" value="Data Access Layer" style="text;html=1;align=center;verticalAlign=middle;whiteSpace=wrap;rounded=0;" vertex="1" parent="1">
          <mxGeometry x="450" y="197.5" width="100" height="45" as="geometry" />
        </mxCell>
        <mxCell id="RqrhnJlKZs5W2SoNAt37-15" value="" style="endArrow=classic;startArrow=classic;html=1;rounded=0;" edge="1" parent="1">
          <mxGeometry width="50" height="50" relative="1" as="geometry">
            <mxPoint x="160" y="219.5" as="sourcePoint" />
            <mxPoint x="240" y="220" as="targetPoint" />
          </mxGeometry>
        </mxCell>
        <mxCell id="RqrhnJlKZs5W2SoNAt37-16" value="" style="endArrow=classic;startArrow=classic;html=1;rounded=0;" edge="1" parent="1">
          <mxGeometry width="50" height="50" relative="1" as="geometry">
            <mxPoint x="360" y="219.5" as="sourcePoint" />
            <mxPoint x="440" y="220" as="targetPoint" />
          </mxGeometry>
        </mxCell>
        <mxCell id="RqrhnJlKZs5W2SoNAt37-17" value="" style="shape=datastore;whiteSpace=wrap;html=1;" vertex="1" parent="1">
          <mxGeometry x="640" y="120" width="100" height="160" as="geometry" />
        </mxCell>
        <mxCell id="RqrhnJlKZs5W2SoNAt37-18" value="Data Store" style="text;html=1;align=center;verticalAlign=middle;whiteSpace=wrap;rounded=0;" vertex="1" parent="1">
          <mxGeometry x="640" y="205" width="100" height="30" as="geometry" />
        </mxCell>
        <mxCell id="RqrhnJlKZs5W2SoNAt37-19" value="" style="endArrow=classic;startArrow=classic;html=1;rounded=0;" edge="1" parent="1">
          <mxGeometry width="50" height="50" relative="1" as="geometry">
            <mxPoint x="560" y="219.5" as="sourcePoint" />
            <mxPoint x="640" y="220" as="targetPoint" />
          </mxGeometry>
        </mxCell>
        <mxCell id="RqrhnJlKZs5W2SoNAt37-20" value="" style="endArrow=none;dashed=1;html=1;dashPattern=1 3;strokeWidth=2;rounded=0;" edge="1" parent="1">
          <mxGeometry width="50" height="50" relative="1" as="geometry">
            <mxPoint x="200" y="480" as="sourcePoint" />
            <mxPoint x="200" y="20" as="targetPoint" />
          </mxGeometry>
        </mxCell>
        <mxCell id="RqrhnJlKZs5W2SoNAt37-21" value="" style="image;aspect=fixed;perimeter=ellipsePerimeter;html=1;align=center;shadow=0;dashed=0;spacingTop=3;image=img/lib/active_directory/windows_server.svg;" vertex="1" parent="1">
          <mxGeometry x="430" y="335" width="90.2" height="110" as="geometry" />
        </mxCell>
        <mxCell id="RqrhnJlKZs5W2SoNAt37-22" value="" style="image;aspect=fixed;perimeter=ellipsePerimeter;html=1;align=center;shadow=0;dashed=0;spacingTop=3;image=img/lib/active_directory/laptop_client.svg;" vertex="1" parent="1">
          <mxGeometry x="50" y="335" width="99" height="110" as="geometry" />
        </mxCell>
        <mxCell id="RqrhnJlKZs5W2SoNAt37-29" value="&lt;h1 style=&quot;margin-top: 0px;&quot;&gt;Architecture Diagram Artico&lt;/h1&gt;" style="text;html=1;whiteSpace=wrap;overflow=hidden;rounded=0;" vertex="1" parent="1">
          <mxGeometry x="260" y="40" width="410" height="50" as="geometry" />
        </mxCell>
        <mxCell id="RqrhnJlKZs5W2SoNAt37-30" value="Client Workstation" style="text;html=1;align=center;verticalAlign=middle;whiteSpace=wrap;rounded=0;" vertex="1" parent="1">
          <mxGeometry x="50" y="445" width="120" height="30" as="geometry" />
        </mxCell>
        <mxCell id="RqrhnJlKZs5W2SoNAt37-31" value="Server" style="text;html=1;align=center;verticalAlign=middle;whiteSpace=wrap;rounded=0;" vertex="1" parent="1">
          <mxGeometry x="415.1" y="445" width="120" height="30" as="geometry" />
        </mxCell>
      </root>
    </mxGraphModel>
  </diagram>
</mxfile>
